<svg width="154" height="127" viewBox="0 0 154 127" fill="none" xmlns="http://www.w3.org/2000/svg">
<path d="M31.4023 41.4086C31.4587 42.5769 31.0321 45.0066 30.1225 48.6979C29.5917 49.2354 27.5802 50.0156 24.0878 51.0384C21.0401 51.9278 18.7996 52.4727 17.3663 52.673L16.198 52.7294L16.0576 52.1075C15.7622 50.7588 16.1006 48.5909 17.073 45.6037C18.1282 44.9928 20.367 44.1809 23.7894 43.1678C27.042 42.2142 29.3849 41.6371 30.8182 41.4368L31.4023 41.4086ZM44.2429 86.6061L34.7401 89.378L34.1266 89.1965C33.8248 88.312 33.5483 86.4617 33.2972 83.6455C33.0746 81.2887 32.6282 79.4977 31.958 78.2727C31.5607 79.2549 31.1792 79.9676 30.8135 80.4108C25.2807 82.6455 21.7104 83.8753 20.1023 84.1001C17.4455 84.4715 15.5121 84.1537 14.3021 83.1467C13.0921 82.1397 12.299 80.2903 11.9227 77.5986C11.7858 76.6197 12.4218 74.2854 13.8306 70.5957C15.3451 66.6417 17.3756 63.7026 19.9222 61.7784C22.4689 59.8542 25.8746 58.594 30.1395 57.9978C31.2581 57.8414 32.0967 57.8489 32.6553 58.0203C33.9969 61.7533 35.6543 68.3824 37.6274 77.9079L37.9713 78.0736L42.8795 76.8529L44.2429 86.6061ZM30.8731 70.5121L30.3504 67.5379C29.787 67.3315 29.1906 67.2723 28.5614 67.3603C26.429 67.6584 24.208 68.3431 21.8986 69.4144C19.0542 70.7387 17.3603 72.1338 16.8167 73.5998C17.1584 74.5143 18.4829 74.8103 20.7901 74.4878C24.146 74.0186 27.3417 72.9126 30.377 71.1695L30.8731 70.5121ZM72.6636 82.6331C67.1121 84.4784 62.0641 85.7187 57.5196 86.354C55.9814 86.569 55.0107 86.5087 54.6074 86.173L54.4816 85.6559C54.3335 85.1064 54.4547 83.8064 54.8453 81.7559C52.1806 83.0907 47.4929 84.8687 40.7821 87.0899L39.4187 77.3367C42.7314 76.3033 49.1206 73.9489 58.5862 70.2733C59.3966 69.6967 60.6696 68.8594 62.4051 67.7614L62.5539 68.0614C62.5671 68.6654 61.9623 70.5855 60.7395 73.8215C60.8722 74.5158 61.9198 74.7436 63.8824 74.5049C66.614 74.1587 69.089 73.6345 71.3075 72.9323L72.6636 82.6331ZM63.7574 96.1742C63.0996 99.1174 62.1028 101.93 60.7669 104.611L60.5718 104.746C57.6823 104.472 55.4281 103.772 53.8091 102.644L53.7798 102.434C53.6918 101.805 54.0232 100.351 54.7738 98.0716C55.5244 95.7926 56.12 94.4441 56.5606 94.0261C57.2947 93.9234 58.5195 94.1443 60.2351 94.6885C61.8409 95.2125 63.015 95.7077 63.7574 96.1742ZM99.611 78.0641L85.8427 82.448C85.6378 82.5123 85.4305 82.5591 85.2208 82.5884C83.7875 82.7888 82.2405 81.7932 80.5798 79.6018L79.8982 79.6971C79.0242 79.8193 75.4591 80.9592 69.2028 83.1169L67.8393 73.3637C68.1491 73.2847 69.903 72.7009 73.101 71.6123C74.77 71.0583 75.7804 70.3824 76.1322 69.5848C75.7604 68.7101 75.3845 67.5508 75.0045 66.107C75.8743 62.3857 76.7785 59.6753 77.717 57.9759C78.8917 57.4553 80.0733 57.1119 81.2619 56.9458C86.4706 56.2176 89.3657 57.9335 89.9472 62.0935C90.1818 63.7715 89.9899 65.3309 89.3716 66.7717C89.0198 67.5693 88.3641 68.9975 87.4044 71.0563C87.6281 71.3814 87.9322 71.5171 88.3167 71.4633C89.1907 71.3412 92.5009 70.2903 98.2475 68.3109L99.611 78.0641ZM138.957 56.2579C138.824 57.3458 138.076 60.4085 136.713 65.4462L106.694 75.5769C105.684 78.0349 103.988 81.5865 101.608 86.2318L101.422 86.044L103.112 76.7193C101.532 77.4034 99.4232 78.2507 96.7845 79.2611L95.4137 69.4555C97.7175 68.5988 101.503 67.2499 106.77 65.4087C108.19 61.2897 110.008 57.4714 112.225 53.9538C115.285 49.0709 118.231 46.4316 121.062 46.0358C123.3 45.723 126.492 47.3974 130.639 51.0589C134.786 54.7204 137.559 56.4534 138.957 56.2579ZM123.466 85.7957C122.958 88.7893 122.031 91.592 120.686 94.2037C117.307 93.7493 114.983 93.0584 113.713 92.1311L113.684 91.9213C113.606 91.362 113.944 89.9603 114.7 87.7162C115.4 85.5868 115.953 84.1907 116.36 83.528C117.094 83.4254 118.321 83.6637 120.042 84.243C121.612 84.7718 122.754 85.2894 123.466 85.7957ZM124.684 59.3225C124.338 58.1234 123.472 57.1574 122.087 56.4244C120.731 55.6516 119.425 55.3532 118.166 55.5291C115.265 55.9347 112.523 58.8841 109.94 64.3774C113.208 63.279 118.123 61.5941 124.684 59.3225Z" fill="#00C2FF" fill-opacity="0.5"/>
<path d="M35.4264 41.4086C35.4828 42.5769 35.0562 45.0066 34.1466 48.6979C33.6158 49.2354 31.6043 50.0156 28.1119 51.0384C25.0642 51.9278 22.8237 52.4727 21.3904 52.673L20.2221 52.7294L20.0817 52.1075C19.7863 50.7588 20.1247 48.5909 21.0971 45.6037C22.1523 44.9928 24.3911 44.1809 27.8135 43.1678C31.0661 42.2142 33.409 41.6371 34.8423 41.4368L35.4264 41.4086ZM48.2671 86.6061L38.7642 89.378L38.1507 89.1965C37.8489 88.312 37.5724 86.4617 37.3213 83.6455C37.0987 81.2887 36.6524 79.4977 35.9821 78.2727C35.5848 79.2549 35.2033 79.9676 34.8376 80.4108C29.3049 82.6455 25.7345 83.8753 24.1264 84.1001C21.4696 84.4715 19.5362 84.1537 18.3262 83.1467C17.1162 82.1397 16.3231 80.2903 15.9468 77.5986C15.81 76.6197 16.4459 74.2854 17.8547 70.5957C19.3692 66.6417 21.3997 63.7026 23.9464 61.7784C26.493 59.8542 29.8987 58.594 34.1636 57.9978C35.2822 57.8414 36.1208 57.8489 36.6794 58.0203C38.021 61.7533 39.6784 68.3824 41.6515 77.9079L41.9954 78.0736L46.9036 76.8529L48.2671 86.6061ZM34.8972 70.5121L34.3745 67.5379C33.8111 67.3315 33.2147 67.2723 32.5855 67.3603C30.4531 67.6584 28.2321 68.3431 25.9227 69.4144C23.0783 70.7387 21.3844 72.1338 20.8408 73.5998C21.1825 74.5143 22.507 74.8103 24.8142 74.4878C28.1702 74.0186 31.3658 72.9126 34.4011 71.1695L34.8972 70.5121ZM76.6877 82.6331C71.1362 84.4784 66.0882 85.7187 61.5437 86.354C60.0055 86.569 59.0348 86.5087 58.6315 86.173L58.5057 85.6559C58.3576 85.1064 58.4788 83.8064 58.8694 81.7559C56.2047 83.0907 51.517 84.8687 44.8062 87.0899L43.4428 77.3367C46.7555 76.3033 53.1447 73.9489 62.6103 70.2733C63.4207 69.6967 64.6937 68.8594 66.4292 67.7614L66.578 68.0614C66.5912 68.6654 65.9864 70.5855 64.7636 73.8215C64.8963 74.5158 65.9439 74.7436 67.9065 74.5049C70.6381 74.1587 73.1131 73.6345 75.3316 72.9323L76.6877 82.6331ZM67.7815 96.1742C67.1237 99.1174 66.1269 101.93 64.791 104.611L64.5959 104.746C61.7064 104.472 59.4522 103.772 57.8332 102.644L57.8039 102.434C57.7159 101.805 58.0473 100.351 58.7979 98.0716C59.5485 95.7926 60.1441 94.4441 60.5847 94.0261C61.3188 93.9234 62.5436 94.1443 64.2592 94.6885C65.865 95.2125 67.0391 95.7077 67.7815 96.1742ZM103.635 78.0641L89.8668 82.448C89.662 82.5123 89.4546 82.5591 89.2449 82.5884C87.8116 82.7888 86.2646 81.7932 84.6039 79.6018L83.9223 79.6971C83.0483 79.8193 79.4832 80.9592 73.2269 83.1169L71.8635 73.3637C72.1732 73.2847 73.9271 72.7009 77.1252 71.6123C78.7941 71.0583 79.8045 70.3824 80.1563 69.5848C79.7846 68.7101 79.4087 67.5508 79.0286 66.107C79.8984 62.3857 80.8026 59.6753 81.7412 57.9759C82.9158 57.4553 84.0974 57.1119 85.286 56.9458C90.4947 56.2176 93.3898 57.9335 93.9714 62.0935C94.2059 63.7715 94.014 65.3309 93.3957 66.7717C93.0439 67.5693 92.3882 68.9975 91.4285 71.0563C91.6522 71.3814 91.9563 71.5171 92.3408 71.4633C93.2148 71.3412 96.525 70.2903 102.272 68.3109L103.635 78.0641ZM142.982 56.2579C142.849 57.3458 142.101 60.4085 140.738 65.4462L110.719 75.5769C109.708 78.0349 108.012 81.5865 105.632 86.2318L105.446 86.044L107.136 76.7193C105.556 77.4034 103.447 78.2507 100.809 79.2611L99.4378 69.4555C101.742 68.5988 105.527 67.2499 110.794 65.4087C112.214 61.2897 114.033 57.4714 116.25 53.9538C119.309 49.0709 122.255 46.4316 125.086 46.0358C127.324 45.723 130.516 47.3974 134.663 51.0589C138.811 54.7204 141.583 56.4534 142.982 56.2579ZM127.49 85.7957C126.982 88.7893 126.055 91.592 124.71 94.2037C121.332 93.7493 119.007 93.0584 117.737 92.1311L117.708 91.9213C117.63 91.362 117.968 89.9603 118.724 87.7162C119.424 85.5868 119.978 84.1907 120.384 83.528C121.118 83.4254 122.345 83.6637 124.066 84.243C125.637 84.7718 126.778 85.2894 127.49 85.7957ZM128.708 59.3225C128.362 58.1234 127.497 57.1574 126.111 56.4244C124.756 55.6516 123.449 55.3532 122.19 55.5291C119.289 55.9347 116.547 58.8841 113.964 64.3774C117.232 63.279 122.147 61.5941 128.708 59.3225Z" fill="#FF00D6" fill-opacity="0.5"/>
<path d="M33.9754 41.0931C34.0318 42.2613 33.6052 44.6911 32.6955 48.3823C32.1648 48.9199 30.1532 49.7001 26.6608 50.7229C23.6131 51.6123 21.3726 52.1571 19.9394 52.3575L18.7711 52.4139L18.6307 51.792C18.3352 50.4433 18.6737 48.2753 19.6461 45.2881C20.7012 44.6773 22.94 43.8654 26.3625 42.8523C29.6151 41.8986 31.958 41.3216 33.3912 41.1213L33.9754 41.0931ZM46.816 86.2906L37.3131 89.0625L36.6997 88.8809C36.3978 87.9965 36.1214 86.1461 35.8702 83.33C35.6477 80.9731 35.2013 79.1822 34.5311 77.9572C34.1338 78.9394 33.7523 79.6521 33.3865 80.0953C27.8538 82.33 24.2834 83.5597 22.6754 83.7845C20.0186 84.1559 18.0852 83.8382 16.8752 82.8312C15.6652 81.8242 14.872 79.9748 14.4957 77.283C14.3589 76.3042 14.9949 73.9699 16.4037 70.2802C17.9181 66.3262 19.9487 63.3871 22.4953 61.4629C25.0419 59.5387 28.4477 58.2785 32.7125 57.6823C33.8312 57.5259 34.6698 57.5334 35.2284 57.7048C36.57 61.4377 38.2273 68.0669 40.2004 77.5923L40.5444 77.7581L45.4526 76.5374L46.816 86.2906ZM33.4462 70.1966L32.9235 67.2223C32.36 67.016 31.7637 66.9568 31.1344 67.0448C29.002 67.3429 26.7811 68.0276 24.4716 69.0989C21.6273 70.4232 19.9333 71.8183 19.3898 73.2843C19.7315 74.1988 21.0559 74.4948 23.3632 74.1723C26.7191 73.7031 29.9147 72.597 32.95 70.854L33.4462 70.1966ZM75.2367 82.3175C69.6852 84.1628 64.6371 85.4031 60.0926 86.0384C58.5545 86.2535 57.5838 86.1931 57.1804 85.8575L57.0547 85.3404C56.9066 84.7909 57.0278 83.4909 57.4183 81.4404C54.7537 82.7752 50.0659 84.5532 43.3552 86.7744L41.9917 77.0212C45.3045 75.9878 51.6936 73.6334 61.1593 69.9578C61.9697 69.3812 63.2426 68.5439 64.9781 67.4459L65.127 67.7459C65.1401 68.3499 64.5353 70.27 63.3126 73.506C63.4453 74.2003 64.4929 74.4281 66.4554 74.1894C69.187 73.8431 71.6621 73.3189 73.8806 72.6168L75.2367 82.3175ZM66.3304 95.8587C65.6727 98.8019 64.6758 101.614 63.3399 104.296L63.1448 104.43C60.2554 104.157 58.0012 103.456 56.3822 102.328L56.3529 102.118C56.2649 101.489 56.5962 100.035 57.3469 97.7561C58.0975 95.4771 58.6931 94.1285 59.1336 93.7105C59.8677 93.6079 61.0926 93.8287 62.8081 94.373C64.414 94.897 65.5881 95.3922 66.3304 95.8587ZM102.184 77.7485L88.4158 82.1325C88.2109 82.1968 88.0036 82.2436 87.7939 82.2729C86.3606 82.4733 84.8136 81.4777 83.1529 79.2863L82.4712 79.3816C81.5973 79.5038 78.0322 80.6437 71.7758 82.8013L70.4124 73.0481C70.7221 72.9692 72.476 72.3854 75.6741 71.2968C77.3431 70.7427 78.3534 70.0669 78.7053 69.2692C78.3335 68.3945 77.9576 67.2353 77.5776 65.7915C78.4473 62.0702 79.3515 59.3598 80.2901 57.6604C81.4648 57.1398 82.6464 56.7964 83.8349 56.6302C89.0436 55.9021 91.9388 57.618 92.5203 61.778C92.7549 63.456 92.563 65.0153 91.9447 66.4561C91.5928 67.2538 90.9371 68.682 89.9775 70.7407C90.2011 71.0659 90.5052 71.2016 90.8898 71.1478C91.7637 71.0256 95.074 69.9748 100.821 67.9953L102.184 77.7485ZM141.531 55.9424C141.397 57.0302 140.649 60.093 139.287 65.1307L109.267 75.2614C108.257 77.7194 106.561 81.271 104.181 85.9162L103.995 85.7285L105.685 76.4038C104.105 77.0879 101.996 77.9352 99.3575 78.9456L97.9868 69.1399C100.291 68.2833 104.076 66.9343 109.343 65.0932C110.763 60.9742 112.582 57.1559 114.799 53.6383C117.858 48.7554 120.804 46.1161 123.635 45.7202C125.873 45.4075 129.065 47.0819 133.212 50.7434C137.359 54.4049 140.132 56.1379 141.531 55.9424ZM126.039 85.4802C125.531 88.4738 124.604 91.2765 123.259 93.8882C119.881 93.4337 117.556 92.7429 116.286 91.8156L116.257 91.6058C116.179 91.0465 116.517 89.6448 117.273 87.4007C117.973 85.2713 118.526 83.8752 118.933 83.2125C119.667 83.1099 120.894 83.3482 122.615 83.9274C124.186 84.4563 125.327 84.9739 126.039 85.4802ZM127.257 59.007C126.911 57.8079 126.046 56.8419 124.66 56.1089C123.305 55.3361 121.998 55.0376 120.739 55.2136C117.838 55.6192 115.096 58.5686 112.513 64.0619C115.781 62.9635 120.696 61.2786 127.257 59.007Z" fill="black"/>
</svg>
