<svg width="178" height="104" viewBox="0 0 178 104" fill="none" xmlns="http://www.w3.org/2000/svg">
<path d="M173.128 7.2095L167.128 0.209503L154.128 18.7095C152.128 21.9095 146.294 24.7095 143.628 25.7095C130.827 29.7095 119.294 32.0428 115.128 32.7095L113.128 33.7095L89.1275 69.7095L95.1275 38.7095L2.6275 62.7095L0.627502 77.7095L77.6275 56.7095V57.7095L69.6275 100.71L82.6275 103.71L120.628 45.2095H121.628C129.628 43.7095 142.128 39.7095 150.128 36.2095C156.527 33.4095 161.128 28.0428 162.628 25.7095L173.128 7.2095Z" fill="#00C2FF" fill-opacity="0.5"/>
<path d="M177.128 7.2095L171.128 0.209503L158.128 18.7095C156.128 21.9095 150.294 24.7095 147.628 25.7095C134.827 29.7095 123.294 32.0428 119.128 32.7095L117.128 33.7095L93.1275 69.7095L99.1275 38.7095L6.6275 62.7095L4.6275 77.7095L81.6275 56.7095V57.7095L73.6275 100.71L86.6275 103.71L124.628 45.2095H125.628C133.628 43.7095 146.128 39.7095 154.128 36.2095C160.527 33.4095 165.128 28.0428 166.628 25.7095L177.128 7.2095Z" fill="#FF00D6" fill-opacity="0.5"/>
<path d="M175.5 6.99998L169.5 -1.52588e-05L156.5 18.5C154.5 21.7 148.667 24.5 146 25.5C133.2 29.5 121.667 31.8333 117.5 32.5L115.5 33.5L91.5 69.5L97.5 38.5L5 62.5L3 77.5L80 56.5V57.5L72 100.5L85 103.5L123 45H124C132 43.5 144.5 39.5 152.5 36C158.9 33.2 163.5 27.8333 165 25.5L175.5 6.99998Z" fill="#090000"/>
</svg>
